<svg xmlns="http://www.w3.org/2000/svg" xmlns:xlink="http://www.w3.org/1999/xlink" width="534.197" height="444.597" viewBox="0 0 534.197 444.597"><defs><style>.a{opacity:0.7;}.b{fill:url(#a);}.c,.x{fill:#535461;}.aa,.d{opacity:0.1;}.e{fill:#e0e0e0;}.f{fill:url(#b);}.g{fill:url(#c);}.h{fill:#eee;}.i{fill:#59c0a1;}.j{fill:url(#f);}.k{fill:url(#g);}.l{fill:url(#k);}.m{fill:url(#l);}.n{fill:url(#m);}.o{fill:url(#n);}.p{fill:url(#o);}.q{fill:url(#r);}.r{fill:url(#s);}.s{fill:url(#u);}.t{opacity:0.4;}.u{fill:url(#v);}.v{fill:#45b7c4;}.v,.z{opacity:0.2;}.aa,.w{fill:#f55f44;}.w{opacity:0.05;}.x{opacity:0.25;}.y{fill:url(#x);}.z{fill:#6c63ff;}</style><linearGradient id="a" x1="0.5" y1="1" x2="0.5" gradientUnits="objectBoundingBox"><stop offset="0" stop-color="gray" stop-opacity="0.251"/><stop offset="0.54" stop-color="gray" stop-opacity="0.122"/><stop offset="1" stop-color="gray" stop-opacity="0.102"/></linearGradient><linearGradient id="b" x1="0.5" x2="0.5" y2="1" gradientUnits="objectBoundingBox"><stop offset="0" stop-color="#e0e0e0"/><stop offset="0.31" stop-color="#fccc63"/><stop offset="0.77" stop-color="#f55f44"/></linearGradient><linearGradient id="c" x1="0.5" y1="0" x2="0.5" y2="1" xlink:href="#b"/><linearGradient id="f" x1="0.5" x2="0.5" y2="0" xlink:href="#a"/><linearGradient id="g" x1="0.5" x2="0.5" y2="1" gradientUnits="objectBoundingBox"><stop offset="0" stop-color="#f2f2f2"/><stop offset="0.31" stop-color="#e6e6e6"/><stop offset="0.77" stop-color="#ccc"/></linearGradient><linearGradient id="k" x1="0.5" y1="0.001" x2="0.5" y2="1" xlink:href="#g"/><linearGradient id="l" x1="0.5" y1="0" x2="0.5" y2="1" xlink:href="#g"/><linearGradient id="m" x1="0.5" y1="0" x2="0.5" y2="1" xlink:href="#g"/><linearGradient id="n" x1="0.5" y1="0" x2="0.5" y2="1" xlink:href="#g"/><linearGradient id="o" x1="0.5" y1="0" x2="0.5" y2="1" xlink:href="#g"/><linearGradient id="r" x1="0.5" x2="0.5" y2="0" xlink:href="#a"/><linearGradient id="s" x1="0.5" x2="0.5" y2="1" gradientUnits="objectBoundingBox"><stop offset="0" stop-color="#f2f2f2"/><stop offset="0.31" stop-color="#e0e0e0"/><stop offset="0.77" stop-color="#b3b3b3"/></linearGradient><linearGradient id="u" x1="0.5" y1="0" x2="0.5" y2="1" xlink:href="#g"/><linearGradient id="v" x1="0.5" y1="0.999" x2="0.5" y2="-0.001" xlink:href="#a"/><linearGradient id="x" x1="0.501" y1="1.001" x2="0.501" y2="0.001" xlink:href="#a"/></defs><g transform="translate(0 -0.05)"><g class="a" transform="translate(174.189 27.747)"><path class="b" d="M602.441,285.386a86.939,86.939,0,0,0-9.816-40.418,49.848,49.848,0,0,0-8.084-11.738,5.774,5.774,0,0,0-6.582-1.3,5.935,5.935,0,0,0-2.31,1.49,52.33,52.33,0,0,0-7.882,11.305,87.274,87.274,0,0,0-10.318,41.526v8.7h-5.578V193.9a135.731,135.731,0,0,0-14.025-60.627c-4.4-8.782-8.413-14.239-11.5-17.593a7.974,7.974,0,0,0-11.987,0,78.716,78.716,0,0,0-11.248,16.935,136,136,0,0,0-14.724,62.226v100.1h-4.821v-9.111a87.273,87.273,0,0,0-10.318-41.526A52.619,52.619,0,0,0,465.367,233a5.774,5.774,0,0,0-6.7-1.224l.2.11a5.953,5.953,0,0,0-1.882,1.316,51.284,51.284,0,0,0-8.084,11.738,86.939,86.939,0,0,0-9.816,40.418v151.07H456.3l-1.877,12.42v37.133h14.065V448.853l-1.877-12.42h16.958V298.857h4.821V435.816H502.13l-1.975,13.032v37.138h14.071V448.853l-1.975-13.032h18.517l-1.975,13.032v37.133h14.071V448.853l-1.975-13.032h10.971V298.857h5.578V436.642h4.521v-.208h14.949l-1.877,12.42v37.133H589.1V448.853l-1.877-12.42h15.214Z" transform="translate(-439.089 -112.969)"/></g><path class="c" d="M347.691,605.363H334.37l2.379-16.173h8.563Z" transform="translate(-141.305 -248.972)"/><g class="d" transform="translate(194.779 342.118)"><path d="M337.34,597h9.891l-.664-4.521H338Z" transform="translate(-337.34 -592.48)"/></g><path class="c" d="M545.451,605.363H532.13l2.379-16.173h8.563Z" transform="translate(-224.879 -248.972)"/><g class="d" transform="translate(308.966 342.118)"><path d="M535.1,597h9.891l-.664-4.521h-8.563Z" transform="translate(-535.1 -592.48)"/></g><path class="c" d="M422.676,605.363H409.35l2.379-16.173H420.3Z" transform="translate(-172.992 -248.972)"/><g class="d" transform="translate(238.073 342.118)"><path d="M412.32,597h9.9l-.664-4.521h-8.569Z" transform="translate(-412.32 -592.48)"/></g><path class="c" d="M469.641,605.363H456.32L458.7,589.19h8.563Z" transform="translate(-192.842 -248.972)"/><g class="d" transform="translate(265.193 342.118)"><path d="M459.29,597h9.9l-.67-4.521h-8.563Z" transform="translate(-459.29 -592.48)"/></g><rect class="c" width="95.155" height="3.805" transform="translate(206.385 206.522)"/><path class="e" d="M666.7,317.17a5.364,5.364,0,0,0-7.951,0,51.093,51.093,0,0,0-7.46,11.005,86.944,86.944,0,0,0-9.764,40.418v146.48h42.11V367.987a86.61,86.61,0,0,0-9.3-39.384A49.522,49.522,0,0,0,666.7,317.17Z" transform="translate(-350.451 -170.773)"/><path class="e" d="M463.6,317.17a5.364,5.364,0,0,1,7.951,0,51.09,51.09,0,0,1,7.46,11.005,86.944,86.944,0,0,1,9.764,40.418v146.48H446.65V367.987a86.61,86.61,0,0,1,9.3-39.384A48.741,48.741,0,0,1,463.6,317.17Z" transform="translate(-268.095 -170.773)"/><path class="c" d="M309.65,346.93l9.989.046V359.3H309.65Z" transform="translate(-130.859 -146.592)"/><path class="c" d="M364.86,346.93l9.989.046V359.3H364.86Z" transform="translate(-154.191 -146.592)"/><path class="c" d="M504.11,346.93l9.995.046V359.3H504.11Z" transform="translate(-213.038 -146.592)"/><path class="c" d="M559.32,346.93l9.995.046V359.3H559.32Z" transform="translate(-236.37 -146.592)"/><g class="d" transform="translate(197.083 144.448)"><path d="M492.551,327.848a50.88,50.88,0,0,0-7.46-11.005,5.347,5.347,0,0,0-6.351-1.2,5.676,5.676,0,0,1,1.605,1.2,51.092,51.092,0,0,1,7.46,11.005,86.944,86.944,0,0,1,9.764,40.418V514.735h4.758V368.283a86.945,86.945,0,0,0-9.775-40.435Z" transform="translate(-478.74 -315.085)"/></g><g class="d" transform="translate(290.586 144.845)"><path d="M654.722,328.542a50.882,50.882,0,0,1,7.46-11.005,5.658,5.658,0,0,1,1.842-1.317,5.352,5.352,0,0,0-6.12,1.317,51.084,51.084,0,0,0-7.46,11.005,86.944,86.944,0,0,0-9.764,40.418V515.429h4.284V368.983A86.945,86.945,0,0,1,654.722,328.542Z" transform="translate(-640.678 -315.771)"/></g><rect class="f" width="13.321" height="36.157" transform="translate(193.065 356.391)"/><rect class="g" width="13.321" height="36.157" transform="translate(236.358 356.391)"/><rect class="g" width="13.321" height="36.157" transform="translate(263.478 356.391)"/><rect class="g" width="13.321" height="36.157" transform="translate(307.251 356.391)"/><path class="h" d="M563.4,117.627a7.414,7.414,0,0,0-11.346,0,77.546,77.546,0,0,0-10.647,16.5,135.668,135.668,0,0,0-13.938,60.6V429.774h60.1v-236a135,135,0,0,0-13.28-59.016C570.128,126.207,566.329,120.9,563.4,117.627Z" transform="translate(-302.25 -86.074)"/><rect class="i" width="31.358" height="14.371" rx="7.186" transform="translate(239.176 57.663)"/><g class="a" transform="translate(78.581 336.542)"><path class="j" d="M590.2,699.829h0a47.924,47.924,0,0,0-95.2,8.124v.7h0a44.221,44.221,0,0,0-5.254,1.126,43.79,43.79,0,0,0-82.337-7.454,43.3,43.3,0,0,0-12.079-2.76h0a47.565,47.565,0,0,0-3.3-10.884,43.767,43.767,0,0,0-87.256-1.155,47.607,47.607,0,0,0-4.284,15.226h0a43.813,43.813,0,0,0-25.111,53.121H626.2a43.8,43.8,0,0,0-36-56.048Z" transform="translate(-273.505 -647.773)"/></g><circle class="k" cx="42.052" cy="42.052" r="42.052" transform="translate(115.41 338.677)"/><circle class="k" cx="46.047" cy="46.047" r="46.047" transform="translate(111.207 350.45)"/><circle class="k" cx="46.047" cy="46.047" r="46.047" transform="translate(298.342 350.45)"/><circle class="k" cx="42.052" cy="42.052" r="42.052" transform="translate(300.022 358.441)"/><path class="l" d="M585.961,741.555a41.977,41.977,0,0,1-17.391,34.066H519.243a42.069,42.069,0,1,1,66.713-34.066Z" transform="translate(-291.408 -333.071)"/><path class="m" d="M493.5,779.462a41.862,41.862,0,0,1-1.8,12.195H411.193v-.029a42.052,42.052,0,0,1,40-54.218h.26q1.767,0,3.5.144a41.616,41.616,0,0,1,11.6,2.65A42.064,42.064,0,0,1,493.5,779.462Z" transform="translate(-252.351 -349.112)"/><path class="n" d="M676.31,794.04q0,1.888-.167,3.736a.1.1,0,0,1,0,.052H592.373c-.115-1.247-.173-2.512-.173-3.782a42.011,42.011,0,0,1,35.753-41.573,42.58,42.58,0,0,1,6.282-.473c1.074,0,2.142.04,3.2.115A42.086,42.086,0,0,1,672.6,776.794c.173.381.341.768.5,1.155a41.849,41.849,0,0,1,3.216,16.092Z" transform="translate(-329.605 -355.278)"/><path class="o" d="M813.977,779.466a41.862,41.862,0,0,1-1.8,12.195H731.686a42.319,42.319,0,0,1-1.08-19.943c.069-.364.139-.733.219-1.091a42.069,42.069,0,0,1,41.122-33.206c1.322,0,2.621.058,3.909.185.577.046,1.155.115,1.732.191A42.058,42.058,0,0,1,813.977,779.466Z" transform="translate(-387.794 -349.116)"/><path class="p" d="M367.888,791.647c.139-.439.26-.878.381-1.322a42.081,42.081,0,0,0-51.845-51.435,40.126,40.126,0,0,0-4.914,1.7,42.092,42.092,0,0,0-24.124,51.042h80.5Z" transform="translate(-200.026 -349.096)"/><g class="a" transform="translate(402.487 340.634)"><circle class="b" cx="7.714" cy="7.714" r="7.714"/></g><circle class="k" cx="7.148" cy="7.148" r="7.148" transform="translate(403.053 341.2)"/><g class="a" transform="translate(437.113 414.368)"><circle class="q" cx="8.413" cy="8.413" r="8.413"/></g><circle class="r" cx="7.991" cy="7.991" r="7.991" transform="translate(437.535 414.789)"/><g class="a" transform="translate(76.309 365.595)"><circle class="b" cx="9.244" cy="9.244" r="9.244"/></g><circle class="s" cx="8.828" cy="8.828" r="8.828" transform="translate(76.725 366.011)"/><g class="t" transform="translate(388.262 0.05)"><path class="u" d="M855.393,75.058h0a25.6,25.6,0,0,0-7.552-6.686h0a25.359,25.359,0,1,0-12.7,47.347c.537,0,1.074,0,1.605-.052a25.354,25.354,0,0,0,18.638-40.58Z" transform="translate(-809.845 -65)"/></g><path class="v" d="M860.1,91.332a23.968,23.968,0,0,1-22.451,23.922c-.5.035-1.008.052-1.517.052a23.968,23.968,0,1,1,11.987-44.731h0a24.193,24.193,0,0,1,7.142,6.323h0A23.846,23.846,0,0,1,860.1,91.332Z" transform="translate(-422.57 -65.951)"/><path class="w" d="M839.155,82.393a26.091,26.091,0,0,0-3.574,1.882,5.658,5.658,0,0,0-1.911,1.732,2.252,2.252,0,0,0-.046,2.442,3.448,3.448,0,0,0,2.7.976,5.116,5.116,0,0,0,4.9-1.617l2.061-1.871c.716-.647,1.5-1.542,1.19-2.454a2.071,2.071,0,0,0-1.732-1.155,7.27,7.27,0,0,0-5.156.907" transform="translate(-431.489 -72.216)"/><circle class="w" cx="1.259" cy="1.259" r="1.259" transform="translate(397.798 33.585)"/><circle class="w" cx="4.625" cy="4.625" r="4.625" transform="translate(420.086 22.228)"/><path class="w" d="M877.572,79.211h0a6.311,6.311,0,1,1-7.142-6.351h0A24.193,24.193,0,0,1,877.572,79.211Z" transform="translate(-444.87 -68.272)"/><path class="w" d="M874.344,131.143a23.91,23.91,0,0,1-18.078,10.116c-.029-.329-.046-.664-.046-1a11.357,11.357,0,0,1,18.125-9.117Z" transform="translate(-441.18 -91.957)"/><circle class="x" cx="2.945" cy="2.945" r="2.945" transform="translate(414.404 196.117)"/><circle class="x" cx="2.945" cy="2.945" r="2.945" transform="translate(21.774 273.488)"/><circle class="x" cx="2.945" cy="2.945" r="2.945" transform="translate(528.152 290.233)"/><circle class="x" cx="2.945" cy="2.945" r="2.945" transform="translate(163.767 150.699)"/><circle class="x" cx="2.945" cy="2.945" r="2.945" transform="translate(154.096 82.993)"/><circle class="x" cx="2.945" cy="2.945" r="2.945" transform="translate(70.829 217.14)"/><path class="x" d="M844.561,385.206H841.94V382.59h-1.068v2.616H838.25v1.074h2.621V388.9h1.068V386.28h2.621Z" transform="translate(-354.246 -161.662)"/><path class="x" d="M920.561,228.206H917.94V225.59h-1.068v2.616H914.25v1.074h2.621V231.9h1.068V229.28h2.621Z" transform="translate(-386.364 -95.314)"/><path class="x" d="M596.931,140.491h-2.621V137.87h-1.068v2.621H590.62v1.068h2.621v2.621h1.068V141.56h2.621Z" transform="translate(-249.597 -58.243)"/><path class="x" d="M795.035,359.716h-2.621V357.1h-1.068v2.616H788.73v1.074h2.616v2.616h1.068V360.79h2.621Z" transform="translate(-333.319 -150.89)"/><path class="x" d="M628.975,510.476H626.36V507.86h-1.068v2.616H622.67v1.074h2.621v2.616h1.068v-2.616h2.616Z" transform="translate(-263.142 -214.602)"/><path class="x" d="M164.311,199.486H161.69V196.87h-1.068v2.616H158v1.068h2.621v2.621h1.068v-2.621h2.621Z" transform="translate(-66.771 -83.177)"/><path class="x" d="M6.311,258.486H3.69V255.87H2.621v2.616H0v1.068H2.621v2.621H3.69v-2.621H6.311Z" transform="translate(0 -108.11)"/><path class="x" d="M226.945,444.2h-2.621V441.58h-1.068V444.2H220.64v1.068h2.616v2.621h1.068V445.27h2.621Z" transform="translate(-93.243 -186.591)"/><circle class="k" cx="7.991" cy="7.991" r="7.991" transform="translate(437.535 414.789)"/><g class="t" transform="translate(133.543 196.313)"><path class="y" d="M390.448,409.737h0a12.188,12.188,0,0,0-3.6-3.187h0a12.079,12.079,0,1,0-6.04,22.519h.762a12.079,12.079,0,0,0,8.875-19.326Z" transform="translate(-368.695 -404.91)"/></g><path class="z" d="M392.738,417.5a11.415,11.415,0,0,1-10.693,11.392h-.722a11.415,11.415,0,1,1,5.71-21.306h0a11.548,11.548,0,0,1,3.4,3.008h0a11.357,11.357,0,0,1,2.3,6.906Z" transform="translate(-235.669 -209.083)"/><path class="aa" d="M382.741,413.236a12.434,12.434,0,0,0-1.732.895,2.7,2.7,0,0,0-.912.814,1.074,1.074,0,0,0,0,1.155,1.634,1.634,0,0,0,1.282.462,2.436,2.436,0,0,0,2.31-.768l.982-.889c.341-.312.716-.733.577-1.155a1.034,1.034,0,0,0-.831-.577,3.464,3.464,0,0,0-2.454.433" transform="translate(-239.899 -212.061)"/><circle class="aa" cx="0.6" cy="0.6" r="0.6" transform="translate(138.142 212.319)"/><circle class="aa" cx="2.206" cy="2.206" r="2.206" transform="translate(148.755 206.909)"/><path class="aa" d="M401.055,411.794h0a3,3,0,1,1-3.4-3.014h0a11.548,11.548,0,0,1,3.4,3.014Z" transform="translate(-246.289 -210.232)"/><path class="aa" d="M399.539,436.465a11.386,11.386,0,0,1-8.609,4.821v-.479a5.41,5.41,0,0,1,8.661-4.342Z" transform="translate(-244.548 -221.473)"/><g class="d" transform="translate(225.526 116.684)"><rect width="59.472" height="2.31"/></g></g></svg>